<mxfile host="app.diagrams.net" modified="2023-10-19T18:12:55.474Z" agent="Mozilla/5.0 (Windows NT 10.0; Win64; x64) AppleWebKit/537.36 (KHTML, like Gecko) Chrome/118.0.0.0 Safari/537.36" version="21.8.2" etag="zc1AJmUWADUvvgTjgPh5" type="github">
  <diagram name="第 1 页" id="DlmGWus6G6EkbxjnxxQk">
    <mxGraphModel>
      <root>
        <mxCell id="0" />
        <mxCell id="1" parent="0" />
      </root>
    </mxGraphModel>
  </diagram>
</mxfile>
